<svg width="28" height="33" fill="none" xmlns="http://www.w3.org/2000/svg">
  <g filter="url(#a)">
    <path d="M13.75 24.5a2.469 2.469 0 0 0 2.462-2.462H11.29a2.462 2.462 0 0 0 2.462 2.462Zm7.385-7.385v-6.153c0-3.779-2.018-6.942-5.538-7.779v-.837A1.844 1.844 0 0 0 13.75.5a1.844 1.844 0 0 0-1.846 1.846v.837c-3.533.837-5.539 3.988-5.539 7.778v6.154l-1.588 1.588c-.775.776-.233 2.105.862 2.105h16.21c1.095 0 1.648-1.33.873-2.105l-1.588-1.588Z" fill="#F4F4F4"/>
  </g>
  <defs>
    <filter id="a" x=".414" y=".5" width="26.671" height="32" filterUnits="userSpaceOnUse" color-interpolation-filters="sRGB">
      <feFlood flood-opacity="0" result="BackgroundImageFix"/>
      <feColorMatrix in="SourceAlpha" values="0 0 0 0 0 0 0 0 0 0 0 0 0 0 0 0 0 0 127 0" result="hardAlpha"/>
      <feOffset dy="4"/>
      <feGaussianBlur stdDeviation="2"/>
      <feComposite in2="hardAlpha" operator="out"/>
      <feColorMatrix values="0 0 0 0 0 0 0 0 0 0 0 0 0 0 0 0 0 0 0.1 0"/>
      <feBlend in2="BackgroundImageFix" result="effect1_dropShadow_1222_8689"/>
      <feBlend in="SourceGraphic" in2="effect1_dropShadow_1222_8689" result="shape"/>
    </filter>
  </defs>
</svg>
