<svg width="85" height="28" viewBox="0 0 85 28" fill="none" xmlns="http://www.w3.org/2000/svg">
<g clip-path="url(#clip0_1176_8651)">
<path d="M36.2463 14.3591C36.2463 18.2456 33.1612 21.1095 29.375 21.1095C25.5888 21.1095 22.5037 18.2456 22.5037 14.3591C22.5037 10.4452 25.5888 7.60864 29.375 7.60864C33.1612 7.60864 36.2463 10.4452 36.2463 14.3591ZM33.2384 14.3591C33.2384 11.9304 31.4503 10.2686 29.375 10.2686C27.2997 10.2686 25.5116 11.9304 25.5116 14.3591C25.5116 16.7634 27.2997 18.4495 29.375 18.4495C31.4503 18.4495 33.2384 16.7604 33.2384 14.3591Z" fill="#A5A7B2"/>
<path d="M51.0698 14.3591C51.0698 18.2456 47.9846 21.1095 44.1985 21.1095C40.4123 21.1095 37.3271 18.2456 37.3271 14.3591C37.3271 10.4482 40.4123 7.60864 44.1985 7.60864C47.9846 7.60864 51.0698 10.4452 51.0698 14.3591ZM48.0619 14.3591C48.0619 11.9304 46.2738 10.2686 44.1985 10.2686C42.1232 10.2686 40.3351 11.9304 40.3351 14.3591C40.3351 16.7634 42.1232 18.4495 44.1985 18.4495C46.2738 18.4495 48.0619 16.7604 48.0619 14.3591Z" fill="#A5A7B2"/>
<path d="M65.2757 8.01647V20.1356C65.2757 25.1208 62.2925 27.1569 58.7657 27.1569C55.4459 27.1569 53.4478 24.9686 52.6942 23.1791L55.3131 22.1047C55.7794 23.2034 56.922 24.4999 58.7626 24.4999C61.0201 24.4999 62.4191 23.1273 62.4191 20.5434V19.5726H62.3141C61.6409 20.3912 60.3438 21.1065 58.707 21.1065C55.2822 21.1065 52.1445 18.1665 52.1445 14.3834C52.1445 10.573 55.2822 7.60864 58.707 7.60864C60.3407 7.60864 61.6378 8.32386 62.3141 9.11821H62.4191V8.01951H65.2757V8.01647ZM62.6322 14.3834C62.6322 12.0065 61.0232 10.2686 58.9757 10.2686C56.9004 10.2686 55.1617 12.0065 55.1617 14.3834C55.1617 16.736 56.9004 18.4495 58.9757 18.4495C61.0232 18.4495 62.6322 16.736 62.6322 14.3834Z" fill="#A5A7B2"/>
<path d="M69.9853 0.913086V20.6957H67.0515V0.913086H69.9853Z" fill="#A5A7B2"/>
<path d="M81.4181 16.5809L83.7528 18.1148C82.9993 19.2135 81.1834 21.1066 78.0457 21.1066C74.1546 21.1066 71.2485 18.1422 71.2485 14.3561C71.2485 10.3418 74.1793 7.60571 77.7091 7.60571C81.2637 7.60571 83.0024 10.3935 83.5706 11.9001L83.8825 12.667L74.7259 16.4044C75.4269 17.7588 76.5171 18.4496 78.0457 18.4496C79.5775 18.4496 80.6399 17.707 81.4181 16.5809ZM74.2318 14.1522L80.3527 11.6475C80.016 10.8044 79.0031 10.217 77.811 10.217C76.2824 10.217 74.1546 11.547 74.2318 14.1522Z" fill="#A5A7B2"/>
<path d="M11.3985 12.6031V9.73915H21.1913C21.2871 10.2383 21.3365 10.8287 21.3365 11.4678C21.3365 13.6165 20.7404 16.2735 18.8196 18.1665C16.9512 20.0839 14.564 21.1065 11.4016 21.1065C5.54015 21.1065 0.611328 16.4013 0.611328 10.6248C0.611328 4.84828 5.54015 0.143066 11.4016 0.143066C14.6443 0.143066 16.9543 1.39698 18.6899 3.03133L16.6393 5.0522C15.3947 3.90176 13.7085 3.00698 11.3985 3.00698C7.11824 3.00698 3.77059 6.40654 3.77059 10.6248C3.77059 14.8431 7.11824 18.2426 11.3985 18.2426C14.1749 18.2426 15.756 17.1439 16.769 16.1457C17.5904 15.3361 18.1309 14.1796 18.344 12.6L11.3985 12.6031Z" fill="#A5A7B2"/>
</g>
<defs>
<clipPath id="clip0_1176_8651">
<rect width="84" height="28" fill="white" transform="translate(0.5)"/>
</clipPath>
</defs>
</svg>
