<svg width="91" height="28" viewBox="0 0 91 28" fill="none" xmlns="http://www.w3.org/2000/svg">
<g clip-path="url(#clip0_1176_8638)">
<path d="M26.2995 19.8443C26.1583 19.5031 26.0259 19.1443 25.8848 18.8381L25.2318 17.3768L25.2054 17.3506C23.2642 13.1506 21.1907 8.88059 18.9936 4.68059L18.9054 4.50559C18.6848 4.09434 18.4642 3.63934 18.2348 3.21934C17.9524 2.72059 17.6789 2.18684 17.2289 1.67934C16.7902 1.14833 16.2382 0.720506 15.6126 0.426739C14.987 0.132972 14.3034 -0.0194092 13.6112 -0.0194092C12.919 -0.0194092 12.2355 0.132972 11.6099 0.426739C10.9843 0.720506 10.4322 1.14833 9.99359 1.67934C9.57889 2.18684 9.27006 2.72059 8.98771 3.21934C8.76712 3.67434 8.54653 4.12059 8.31712 4.53184L8.22889 4.70684C6.06712 8.90684 3.9583 13.1768 2.01712 17.3768L1.96418 17.4293C1.77006 17.8843 1.54065 18.3568 1.32006 18.8643C1.17889 19.1706 1.03771 19.5031 0.896534 19.8706C0.515387 20.8329 0.393674 21.8771 0.543392 22.9003C0.69311 23.9234 1.10909 24.8903 1.75034 25.7054C2.39159 26.5206 3.23597 27.1561 4.20026 27.5491C5.16456 27.9421 6.21549 28.0792 7.24948 27.9468C8.24077 27.8174 9.19531 27.49 10.0554 26.9843C11.2024 26.3456 12.3054 25.4181 13.5407 24.0793C14.7759 25.4181 15.9054 26.3456 17.0259 26.9931C18.1036 27.6203 19.3239 27.9665 20.573 27.9993C22.0195 28.0053 23.4193 27.4921 24.514 26.5545C25.6087 25.6168 26.3244 24.3181 26.5289 22.8981C26.7652 21.8776 26.6853 20.8102 26.2995 19.8356V19.8443ZM13.6289 21.2968C12.1112 19.3718 11.123 17.6043 10.7877 16.0906C10.6488 15.5297 10.6189 14.9476 10.6995 14.3756C10.7612 13.9293 10.9289 13.5356 11.1583 13.2031C11.6877 12.4418 12.6142 11.9693 13.6289 11.9693C14.1108 11.9547 14.5888 12.059 15.02 12.2728C15.4512 12.4866 15.8221 12.8033 16.0995 13.1943C16.3289 13.5443 16.4965 13.9293 16.5495 14.3756C16.6377 14.8831 16.6024 15.4693 16.4612 16.0906C16.1259 17.5781 15.1377 19.3631 13.6289 21.2968ZM24.8701 22.5918C24.7698 23.3128 24.4808 23.9951 24.0319 24.5708C23.5829 25.1465 22.9897 25.5955 22.3112 25.8731C21.6407 26.1531 20.8995 26.2318 20.1759 26.1531C19.4701 26.0656 18.7642 25.8381 18.0407 25.4181C16.8393 24.6818 15.7591 23.767 14.8377 22.7056C16.6907 20.4306 17.8112 18.3568 18.2348 16.5106C18.4377 15.6356 18.4642 14.8481 18.3759 14.1218C18.2658 13.4335 18.0069 12.7768 17.6171 12.1968C17.1721 11.5679 16.578 11.0571 15.8872 10.7092C15.1964 10.3614 14.43 10.1871 13.6554 10.2018C12.023 10.2018 10.5671 10.9543 9.68477 12.1881C9.28757 12.7666 9.03086 13.4285 8.93477 14.1218C8.82006 14.8568 8.84653 15.6706 9.07595 16.5106C9.49948 18.3568 10.6465 20.4568 12.473 22.7231C11.5673 23.8047 10.4845 24.7276 9.27006 25.4531C8.53771 25.8731 7.84065 26.0918 7.13477 26.1793C6.03702 26.3188 4.92814 26.0229 4.04915 25.3561C3.17016 24.6892 2.59211 23.7053 2.44065 22.6181C2.35242 21.9181 2.41418 21.2181 2.69653 20.4306C2.78477 20.1506 2.91712 19.8706 3.0583 19.5381C3.25242 19.0831 3.48183 18.6106 3.70242 18.1381L3.73771 18.0768C5.64359 13.9031 7.72595 9.64184 9.88771 5.46809L9.97595 5.29309C10.1965 4.87309 10.4171 4.42684 10.6465 4.00684C10.8759 3.56059 11.123 3.13184 11.4407 2.78184C11.7156 2.45636 12.0592 2.1946 12.4471 2.01501C12.8351 1.83541 13.2581 1.74233 13.6862 1.74233C14.1144 1.74233 14.5374 1.83541 14.9253 2.01501C15.3133 2.1946 15.6569 2.45636 15.9318 2.78184C16.2407 3.13184 16.4965 3.56059 16.7259 4.00684C16.9465 4.42684 17.1671 4.88184 17.3965 5.29309L17.4848 5.46809C19.6377 9.64184 21.7201 13.9031 23.6612 18.0768L23.6877 18.1031C23.9171 18.5581 24.1112 19.0656 24.3318 19.5031C24.473 19.8443 24.6142 20.1156 24.7024 20.4043C24.8701 21.1918 24.9583 21.8918 24.8701 22.5918ZM37.1524 21.1043C36.4875 21.114 35.829 20.9751 35.2256 20.6979C34.6223 20.4207 34.0896 20.0123 33.6671 19.5031C32.7178 18.4181 32.2139 17.019 32.2554 15.5831C32.2408 14.1159 32.7609 12.6928 33.7201 11.5756C34.1637 11.0599 34.716 10.6469 35.338 10.3657C35.9599 10.0845 36.6365 9.94197 37.3201 9.94809C37.9632 9.93063 38.6003 10.0757 39.1714 10.3696C39.7425 10.6634 40.2289 11.0965 40.5848 11.6281L40.673 10.2543H43.2495V20.8243H40.6642L40.5759 19.2843C40.209 19.8519 39.7019 20.3171 39.1027 20.6356C38.5035 20.9541 37.8322 21.1155 37.1524 21.1043ZM37.823 18.5843C38.3348 18.5843 38.7848 18.4443 39.2083 18.1906C39.5965 17.9106 39.9142 17.5431 40.1612 17.0968C40.3818 16.6506 40.4965 16.1168 40.4965 15.5218C40.5309 15.0051 40.4295 14.4883 40.2021 14.022C39.9748 13.5558 39.6293 13.156 39.1995 12.8618C38.7865 12.6067 38.3096 12.4714 37.823 12.4714C37.3364 12.4714 36.8595 12.6067 36.4465 12.8618C36.0583 13.1418 35.7407 13.5093 35.4936 13.9556C35.2603 14.4477 35.1455 14.9869 35.1583 15.5306C35.1239 16.0474 35.2253 16.5642 35.4527 17.0304C35.68 17.4967 36.0255 17.8964 36.4554 18.1906C36.8701 18.4443 37.3201 18.5843 37.823 18.5843ZM47.6612 7.40184C47.6612 7.70809 47.6083 7.98809 47.4671 8.21559C47.3259 8.43434 47.1318 8.63559 46.8759 8.77559C46.6201 8.91559 46.3465 8.96809 46.0642 8.96809C45.7818 8.96809 45.4995 8.91559 45.2436 8.77559C45.0016 8.64199 44.7981 8.44921 44.6524 8.21559C44.5158 7.96633 44.4487 7.6854 44.4583 7.40184C44.4583 7.08684 44.5201 6.80684 44.6524 6.58809C44.7936 6.32559 44.9965 6.16809 45.2436 6.02809C45.4995 5.88809 45.773 5.82684 46.0642 5.82684C46.345 5.82042 46.6228 5.88639 46.8702 6.01829C47.1177 6.15019 47.3264 6.3435 47.4759 6.57934C47.6044 6.83445 47.668 7.1168 47.6612 7.40184ZM44.6612 20.7893V10.2368H47.4671V20.8068H44.6524L44.6612 20.7893ZM54.9671 13.0018V13.0368C54.8348 12.9756 54.6583 12.9493 54.5259 12.9231C54.3495 12.8881 54.2083 12.8881 54.0406 12.8881C53.2554 12.8881 52.6642 13.1156 52.2759 13.5881C51.8524 14.0693 51.6583 14.7431 51.6583 15.6093V20.7981H48.8436V10.2281H51.4289L51.5171 11.8293C51.7995 11.2693 52.1348 10.8493 52.6112 10.5343C53.0852 10.2283 53.6431 10.0754 54.2083 10.0968C54.4112 10.0968 54.6054 10.1143 54.773 10.1493C54.8612 10.1756 54.9142 10.1756 54.9671 10.2018V13.0018ZM56.0965 20.7893V5.89684H58.9024V11.5843C59.2995 11.0768 59.7495 10.6831 60.3142 10.3768C61.2082 9.94217 62.2238 9.81887 63.1971 10.0268C64.1704 10.2348 65.0447 10.7619 65.6789 11.5231C66.6303 12.6104 67.1343 14.0129 67.0907 15.4518C67.1052 16.919 66.5851 18.3421 65.6259 19.4593C65.1823 19.975 64.63 20.388 64.0081 20.6692C63.3861 20.9504 62.7095 21.093 62.0259 21.0868C61.3828 21.1043 60.7457 20.9593 60.1746 20.6654C59.6035 20.3715 59.1171 19.9384 58.7612 19.4068L58.673 20.7806L56.0965 20.8068V20.7893ZM61.523 18.5843C62.0259 18.5843 62.4759 18.4443 62.8995 18.1906C63.2877 17.9106 63.6054 17.5431 63.8524 17.0968C64.0818 16.6506 64.1877 16.1168 64.1877 15.5218C64.1877 14.9356 64.0818 14.4018 63.8524 13.9556C63.6207 13.5253 63.2952 13.1516 62.8995 12.8618C62.4865 12.6067 62.0096 12.4714 61.523 12.4714C61.0364 12.4714 60.5595 12.6067 60.1465 12.8618C59.7495 13.1418 59.4407 13.5093 59.1848 13.9556C58.9514 14.4477 58.8366 14.9869 58.8495 15.5306C58.8151 16.0474 58.9165 16.5642 59.1439 17.0304C59.3712 17.4967 59.7167 17.8964 60.1465 18.1906C60.5612 18.4443 61.0112 18.5843 61.523 18.5843ZM68.1495 20.7981V10.2281H70.7348L70.823 11.6018C71.1479 11.0753 71.6087 10.6443 72.1579 10.3536C72.707 10.0628 73.3245 9.92283 73.9465 9.94809C74.6578 9.93591 75.3569 10.1319 75.9564 10.5117C76.5559 10.8914 77.0292 11.438 77.3171 12.0831C77.6259 12.7481 77.7936 13.5706 77.7936 14.4893V20.8243H74.9789V14.8568C74.9789 14.1218 74.8112 13.5443 74.4759 13.1156C74.1406 12.6956 73.6818 12.4681 73.0995 12.4681C72.6759 12.4681 72.3054 12.5556 71.9789 12.7481C71.6701 12.9493 71.4142 13.2031 71.2201 13.5618C71.0238 13.9245 70.9265 14.3317 70.9377 14.7431V20.7981H68.1495ZM79.1965 20.7981V5.88809H82.0112V11.5756C82.3925 11.0653 82.8884 10.6501 83.4597 10.363C84.0311 10.0759 84.662 9.92489 85.3024 9.92184C85.9673 9.91219 86.6258 10.0511 87.2292 10.3283C87.8326 10.6055 88.3652 11.0139 88.7877 11.5231C89.7324 12.6103 90.2328 14.0086 90.1907 15.4431C90.206 16.9104 89.6858 18.3338 88.7259 19.4506C88.2823 19.9663 87.73 20.3793 87.108 20.6605C86.4861 20.9417 85.8095 21.0842 85.1259 21.0781C84.4828 21.0955 83.8457 20.9505 83.2746 20.6566C82.7035 20.3627 82.2171 19.9297 81.8612 19.3981L81.7818 20.7718L79.1965 20.7981ZM84.6495 18.5843C85.1612 18.5843 85.6112 18.4443 86.0259 18.1906C86.423 17.9106 86.7318 17.5431 86.9877 17.0968C87.2083 16.6506 87.323 16.1168 87.323 15.5218C87.3574 15.0051 87.256 14.4883 87.0286 14.022C86.8013 13.5558 86.4558 13.156 86.0259 12.8618C85.6129 12.6067 85.1361 12.4714 84.6495 12.4714C84.1629 12.4714 83.686 12.6067 83.273 12.8618C82.8848 13.1418 82.5671 13.5093 82.3201 13.9556C82.0738 14.4433 81.9583 14.9858 81.9848 15.5306C81.9504 16.0474 82.0518 16.5642 82.2792 17.0304C82.5065 17.4967 82.852 17.8964 83.2818 18.1906C83.6965 18.4443 84.1201 18.5843 84.6495 18.5843Z" fill="#A5A7B2"/>
</g>
<defs>
<clipPath id="clip0_1176_8638">
<rect width="90" height="28" fill="white" transform="translate(0.5)"/>
</clipPath>
</defs>
</svg>
