<svg width="26" height="33" viewBox="0 0 26 33" fill="none" xmlns="http://www.w3.org/2000/svg">
<g clip-path="url(#clip0_1294_7791)">
<path d="M12.9998 19.8141C16.4927 19.8141 19.3332 16.9736 19.3332 13.4808C19.3332 9.98796 16.4927 7.14746 12.9998 7.14746C9.507 7.14746 6.6665 9.98796 6.6665 13.4808C6.6665 16.9736 9.507 19.8141 12.9998 19.8141ZM12.9998 10.3141C14.7463 10.3141 16.1665 11.7344 16.1665 13.4808C16.1665 15.2272 14.7463 16.6475 12.9998 16.6475C11.2534 16.6475 9.83317 15.2272 9.83317 13.4808C9.83317 11.7344 11.2534 10.3141 12.9998 10.3141Z" fill="#00A09D"/>
<path d="M11.7486 32.1866C12.0166 32.378 12.3376 32.4809 12.6669 32.4809C12.9962 32.4809 13.3173 32.378 13.5853 32.1866C14.0666 31.8462 25.3795 23.6778 25.3336 13.4811C25.3336 6.49704 19.651 0.814453 12.6669 0.814453C5.68284 0.814453 0.000261463 6.49704 0.000261463 13.4732C-0.0456552 23.6778 11.2673 31.8462 11.7486 32.1866ZM12.6669 3.98112C17.9062 3.98112 22.1669 8.24187 22.1669 13.489C22.2002 20.5159 15.2193 26.8255 12.6669 28.8949C10.1162 26.8239 3.13368 20.5127 3.16693 13.4811C3.16693 8.24187 7.42768 3.98112 12.6669 3.98112Z" fill="#00A09D"/>
</g>
<defs>
<clipPath id="clip0_1294_7791">
<rect width="26" height="32" fill="white" transform="translate(0 0.647461)"/>
</clipPath>
</defs>
</svg>
