<svg width="120" height="24" viewBox="0 0 120 24" fill="none" xmlns="http://www.w3.org/2000/svg">
<path d="M50.3423 0H50.5067C54.9467 5.19709 59.8356 10.0145 64.3689 15.1375C64.3467 10.4509 64.3823 5.76873 64.3467 1.08218C65.5334 1.07782 66.7156 1.06473 67.9023 1.05164C67.8978 8.70109 67.9201 16.3505 67.8934 24H67.7245C63.3423 18.7593 58.4089 13.9811 53.8667 8.86691C53.8801 10.1149 53.8978 11.3629 53.9201 12.6109C52.9067 11.3891 51.7423 10.2938 50.7334 9.06764C50.2712 8.63127 50.4045 7.968 50.3601 7.40945C50.3556 4.93964 50.4134 2.46982 50.3423 0Z" fill="#00A09D"/>
<path d="M70.1422 1.08684C74.6356 1.06938 79.1289 1.06065 83.6222 1.08684C83.6222 2.10356 83.6222 3.12029 83.6311 4.13266C80.3156 4.18066 77.0045 4.14575 73.6889 4.15011C73.7022 6.08756 73.6934 8.02502 73.6978 9.96247C76.4178 9.93629 79.1378 9.95375 81.8578 9.94502C81.8578 10.9836 81.8578 12.0221 81.8578 13.0607C79.1378 13.0388 76.4178 13.0519 73.6978 13.0432C73.6934 15.3123 73.7022 17.5814 73.6889 19.8505C77 19.8505 80.3111 19.8287 83.6267 19.8592C83.6222 20.889 83.6222 21.9145 83.6267 22.9399C79.1289 22.9574 74.6267 22.9923 70.1289 22.9225C70.1867 15.6439 70.16 8.36538 70.1422 1.08684Z" fill="#00A09D"/>
<path d="M96.2178 1.06036C97.6978 1.07782 99.1778 1.08218 100.662 1.03418C97.9289 4.58182 95.1156 8.07273 92.4489 11.6596C95.7867 15.3949 99.0133 19.2175 102.311 22.9876C100.844 22.9615 99.3778 22.9527 97.9155 22.9702C94.9378 19.6756 92.0089 16.3505 89.0489 13.0385C89.0667 16.3636 89.12 19.6887 89.0356 23.0095C87.8711 22.9615 86.7067 22.9571 85.5422 22.9527C85.5911 15.6524 85.5556 8.35636 85.56 1.056C86.7289 1.06909 87.9022 1.06909 89.0711 1.05163C89.0756 4.05818 89.0933 7.06036 89.04 10.0625C91.4844 7.09964 93.8133 4.04945 96.2178 1.06036Z" fill="#00A09D"/>
<path d="M102.849 1.04688C108.2 1.1036 113.551 1.0556 118.902 1.07306C118.894 2.10287 118.894 3.12833 118.902 4.15378C116.774 4.15815 114.649 4.14942 112.525 4.14942C112.56 10.4025 112.48 16.66 112.565 22.9087C111.378 22.9349 110.187 22.9611 109 22.9698C109.005 16.6949 108.996 10.42 109.005 4.14506C106.956 4.15815 104.902 4.14069 102.849 4.17997C102.849 3.13706 102.849 2.09415 102.849 1.04688Z" fill="#00A09D"/>
<path d="M36.3289 0.00390625C41.0266 5.03954 45.7155 10.0795 50.3911 15.1326C50.3866 13.7625 50.36 12.3966 50.3466 11.0265C51.5466 12.305 52.72 13.6097 53.9155 14.897C53.8978 17.9297 53.9155 20.9625 53.9111 23.9952C49.2222 18.9508 44.5022 13.9283 39.8355 8.86209C39.8711 13.5705 39.8578 18.2788 39.8444 22.9828C38.6755 22.9566 37.5022 22.9523 36.3333 22.9828C36.3244 15.3203 36.3333 7.66209 36.3289 0.00390625Z" fill="white"/>
<path d="M11.7956 1.10778C13.2756 1.00742 14.7645 1.11214 16.249 1.02051C13.5601 4.49833 10.8223 7.93687 8.16897 11.4409L8.11564 11.7114C11.3779 15.4729 14.6134 19.2561 17.9156 22.9827C16.4401 22.9609 14.9601 22.9478 13.4845 22.974C10.5245 19.6663 7.56453 16.3587 4.62231 13.0336C4.67119 16.3456 4.63119 19.662 4.65786 22.974C3.45786 22.9521 2.25786 22.9565 1.05786 22.9827C1.07119 15.6692 1.05786 8.36015 1.06231 1.04669C2.25786 1.07287 3.45786 1.07724 4.65342 1.05105C4.64897 4.06633 4.64897 7.07724 4.63119 10.0925C7.03119 7.10342 9.34675 4.05324 11.7956 1.10778Z" fill="white"/>
<path d="M20.0446 1.05566C24.4979 1.09494 28.9557 1.06439 33.4134 1.06875C33.409 2.09857 33.4134 3.12839 33.4134 4.15385C30.1023 4.15385 26.7868 4.15821 23.4757 4.14948C23.4801 6.08694 23.4801 8.02003 23.4757 9.95748C26.2046 9.93566 28.9334 9.95748 31.6623 9.93567C31.6623 10.9829 31.6623 12.0258 31.6579 13.0731C28.9334 13.0251 26.209 13.06 23.4801 13.0469C23.4757 15.316 23.4846 17.5808 23.4757 19.8498C26.7868 19.8368 30.0979 19.8498 33.409 19.8411C33.4134 20.8797 33.4134 21.9138 33.4179 22.9524C28.9646 22.9829 24.5068 22.9175 20.0534 22.9873C20.0312 15.6738 20.049 8.36476 20.0446 1.05566Z" fill="white"/>
</svg>
