<svg width="28" height="30" fill="none" xmlns="http://www.w3.org/2000/svg">
  <g filter="url(#a)" fill="#fff">
    <path d="M12.993 9.446a4.54 4.54 0 1 0 0-9.08 4.54 4.54 0 0 0 0 9.08ZM9 15.767a1.867 1.867 0 0 1 3.233-1.2l2.574 2.766 4.56-5.086A11.207 11.207 0 0 0 13 10.367 10.753 10.753 0 0 0 4.667 14a.666.666 0 0 0-.134.407V18a1.333 1.333 0 0 0 1.294 1.333h5.713l-2.047-2.2A1.874 1.874 0 0 1 9 15.767ZM20.173 19.332A1.334 1.334 0 0 0 21.467 18v-2.507l-3.42 3.84h2.126Z"/>
    <path d="M23.513 10.412a.668.668 0 0 0-.946.054l-7.747 8.666-3.467-3.726a.668.668 0 0 0-.94-.074.667.667 0 0 0 0 .947l4.454 4.8 8.693-9.747a.667.667 0 0 0-.047-.92Z"/>
  </g>
  <defs>
    <filter id="a" x=".533" y=".366" width="27.189" height="28.713" filterUnits="userSpaceOnUse" color-interpolation-filters="sRGB">
      <feFlood flood-opacity="0" result="BackgroundImageFix"/>
      <feColorMatrix in="SourceAlpha" values="0 0 0 0 0 0 0 0 0 0 0 0 0 0 0 0 0 0 127 0" result="hardAlpha"/>
      <feOffset dy="4"/>
      <feGaussianBlur stdDeviation="2"/>
      <feComposite in2="hardAlpha" operator="out"/>
      <feColorMatrix values="0 0 0 0 0 0 0 0 0 0 0 0 0 0 0 0 0 0 0.1 0"/>
      <feBlend in2="BackgroundImageFix" result="effect1_dropShadow_1222_8695"/>
      <feBlend in="SourceGraphic" in2="effect1_dropShadow_1222_8695" result="shape"/>
    </filter>
  </defs>
</svg>
