<svg width="85" height="24" viewBox="0 0 85 24" fill="none" xmlns="http://www.w3.org/2000/svg">
<g clip-path="url(#clip0_1176_8640)">
<path d="M9.59675 3.97278V10.7425H3.42846V3.97278H0.5V20.1328H3.42846V13.5829H9.59675V20.1328H12.5252V3.97278H9.59675Z" fill="#A5A7B2"/>
<path d="M21.8974 14.909C21.8974 15.5567 21.6421 16.1778 21.1878 16.6357C20.7334 17.0937 20.1172 17.351 19.4747 17.351C18.8321 17.351 18.2159 17.0937 17.7616 16.6357C17.3072 16.1778 17.052 15.5567 17.052 14.909V7.98743H14.2742V14.909C14.2742 16.2979 14.8215 17.6299 15.7959 18.612C16.7702 19.5941 18.0917 20.1458 19.4696 20.1458C20.8476 20.1458 22.1691 19.5941 23.1434 18.612C24.1177 17.6299 24.6651 16.2979 24.6651 14.909V7.98743H21.8974V14.909Z" fill="#A5A7B2"/>
<path d="M42.4787 8.70047C42.4787 7.28173 43.4099 6.83195 44.4301 6.83195C45.2522 6.83195 46.3384 7.4625 47.0486 8.22755L48.868 6.0669C47.9597 4.82894 46.1174 3.97278 44.6094 3.97278C41.5963 3.97278 39.4168 5.75163 39.4168 8.70047C39.4168 14.1715 46.0514 12.4361 46.0514 15.4977C46.0514 16.4421 45.1417 17.2765 44.1001 17.2765C42.4572 17.2765 41.9249 16.4667 41.1702 15.6105L39.1514 17.7263C40.4427 19.3244 42.0354 20.1357 43.9437 20.1357C46.8061 20.1357 49.109 18.3352 49.109 15.5208C49.109 9.44672 42.4744 11.334 42.4744 8.70047" fill="#A5A7B2"/>
<path d="M83.5229 17.5513C81.8815 17.5513 81.4152 16.8354 81.4152 15.7392V10.8871H83.9663V8.42856H81.4152V5.18469L78.5986 6.45881V16.3423C78.5986 18.8703 80.329 20.1444 82.7022 20.1444C83.0744 20.1512 83.4464 20.1212 83.8128 20.0547L84.5 17.505C84.1901 17.5267 83.8343 17.5484 83.5229 17.5484" fill="#A5A7B2"/>
<path d="M32.4706 8.0685C31.0947 8.0685 30.1348 8.47055 29.2064 9.38889V4.0697H26.4243V13.9286C26.4243 17.6193 29.0716 20.1473 32.0459 20.1473C35.346 20.1473 38.2487 17.5745 38.2487 14.1094C38.2487 10.6876 35.577 8.06994 32.4706 8.06994V8.0685ZM32.4534 17.3257C31.8291 17.3257 31.2188 17.1391 30.6997 16.7895C30.1806 16.4399 29.776 15.943 29.5371 15.3616C29.2982 14.7803 29.2357 14.1405 29.3575 13.5233C29.4793 12.9062 29.7799 12.3392 30.2214 11.8943C30.6628 11.4493 31.2253 11.1463 31.8376 11.0235C32.4499 10.9007 33.0846 10.9638 33.6614 11.2046C34.2382 11.4454 34.7312 11.8532 35.078 12.3764C35.4249 12.8996 35.61 13.5148 35.61 14.1441C35.61 14.9879 35.2775 15.7972 34.6855 16.3938C34.0935 16.9905 33.2906 17.3257 32.4534 17.3257Z" fill="#A5A7B2"/>
<path d="M62.6793 13.9618C62.6793 10.4909 59.7824 7.92383 56.4766 7.92383C53.5022 7.92383 50.855 10.4518 50.855 14.1426V24.0072H53.6371V18.6808C54.564 19.5977 55.5253 20.0012 56.8999 20.0012C60.0062 20.0012 62.6779 17.385 62.6779 13.9618H62.6793ZM60.045 13.9271C60.045 14.5564 59.8599 15.1715 59.513 15.6947C59.1661 16.2179 58.6732 16.6258 58.0964 16.8666C57.5196 17.1074 56.8849 17.1704 56.2726 17.0476C55.6602 16.9249 55.0978 16.6218 54.6563 16.1769C54.2149 15.7319 53.9142 15.165 53.7924 14.5478C53.6706 13.9306 53.7332 13.2909 53.9721 12.7095C54.211 12.1281 54.6156 11.6312 55.1347 11.2816C55.6538 10.932 56.2641 10.7454 56.8884 10.7454C57.7256 10.7454 58.5285 11.0806 59.1204 11.6773C59.7124 12.274 60.045 13.0832 60.045 13.9271Z" fill="#A5A7B2"/>
<path d="M71.6671 7.78787V4.97063C72.0365 4.79667 72.3492 4.52054 72.569 4.17438C72.7887 3.82823 72.9063 3.42628 72.9082 3.01535V2.95027C72.9082 2.37493 72.6815 1.82315 72.2779 1.41632C71.8742 1.00949 71.3268 0.780939 70.756 0.780939H70.6914C70.1206 0.780939 69.5732 1.00949 69.1696 1.41632C68.766 1.82315 68.5392 2.37493 68.5392 2.95027V3.01535C68.5411 3.42628 68.6588 3.82823 68.8785 4.17438C69.0982 4.52054 69.411 4.79667 69.7803 4.97063V7.78787C68.7187 7.95157 67.7189 8.3951 66.882 9.07356L59.2172 3.05584C59.2715 2.8574 59.3004 2.6528 59.3033 2.44698C59.3041 1.96352 59.1627 1.49067 58.8969 1.08823C58.6311 0.685791 58.2529 0.371847 57.81 0.186108C57.3672 0.000369021 56.8797 -0.0488204 56.4091 0.0447614C55.9385 0.138343 55.506 0.370492 55.1664 0.711844C54.8267 1.0532 54.5951 1.48842 54.5009 1.96245C54.4066 2.43649 54.454 2.92805 54.637 3.37496C54.8199 3.82186 55.1303 4.20404 55.5288 4.47314C55.9272 4.74224 56.3959 4.88618 56.8756 4.88675C57.295 4.88486 57.7066 4.77217 58.0694 4.55991L65.6179 10.4793C64.9397 11.5118 64.5858 12.7264 64.6024 13.9647C64.619 15.203 65.0054 16.4075 65.7112 17.4211L63.4155 19.7351C63.2298 19.6753 63.0364 19.6436 62.8416 19.6411C62.4478 19.6414 62.0629 19.7593 61.7357 19.98C61.4084 20.2007 61.1533 20.5142 61.0028 20.8809C60.8522 21.2477 60.8129 21.6511 60.8898 22.0404C60.9667 22.4296 61.1563 22.7872 61.4348 23.0678C61.7132 23.3485 62.0679 23.5396 62.4541 23.6171C62.8403 23.6946 63.2406 23.655 63.6045 23.5033C63.9683 23.3515 64.2793 23.0944 64.4983 22.7646C64.7172 22.4347 64.8342 22.0468 64.8345 21.6499C64.8321 21.4534 64.8006 21.2585 64.7413 21.0714L67.0126 18.782C67.7532 19.3565 68.6144 19.7525 69.5303 19.9397C70.4462 20.1268 71.3925 20.1003 72.2966 19.8619C73.2007 19.6236 74.0388 19.1799 74.7465 18.5647C75.4542 17.9495 76.0129 17.1793 76.3797 16.3129C76.7464 15.4465 76.9116 14.507 76.8626 13.5664C76.8136 12.6257 76.5516 11.7088 76.0967 10.886C75.6418 10.0631 75.0062 9.35614 74.2384 8.81913C73.4706 8.28212 72.591 7.92936 71.6671 7.78787ZM70.7259 17.0523C70.1046 17.0518 69.4974 16.8656 68.9811 16.5173C68.4647 16.169 68.0624 15.6742 67.825 15.0955C67.5876 14.5168 67.5257 13.8801 67.6471 13.266C67.7686 12.6518 68.0679 12.0878 68.5073 11.6451C68.9468 11.2023 69.5065 10.9009 70.1159 10.7787C70.7253 10.6566 71.3569 10.7193 71.9309 10.9589C72.5049 11.1984 72.9956 11.6042 73.3409 12.1248C73.6863 12.6454 73.8707 13.2574 73.871 13.8837C73.871 14.7237 73.5399 15.5293 72.9507 16.1232C72.3614 16.7172 71.5621 17.0509 70.7287 17.0509" fill="#00A09D"/>
</g>
<defs>
<clipPath id="clip0_1176_8640">
<rect width="84" height="24" fill="white" transform="translate(0.5)"/>
</clipPath>
</defs>
</svg>
