<svg width="123" height="26" viewBox="0 0 123 26" fill="none" xmlns="http://www.w3.org/2000/svg">
<g clip-path="url(#clip0_1176_8658)">
<path d="M43.5636 14.9752L42.8365 17.031H42.7759C42.6547 16.5674 42.4325 15.862 42.0689 15.0155L38.1706 5.24029H34.353V20.8201H36.8779V11.2062C36.8779 10.6015 36.8779 9.91626 36.8577 9.06975C36.8375 8.6465 36.7971 8.32402 36.7769 8.08215H36.8375C36.9587 8.68681 37.1 9.13022 37.201 9.41239L41.8871 20.7798H43.6646L48.3103 9.31161C48.4113 9.0496 48.5123 8.52557 48.6133 8.08215H48.6739C48.6133 9.23099 48.5729 10.2589 48.5527 10.8837V20.7597H51.2391V5.19998H47.563L43.5636 14.9752ZM53.7841 9.59378H56.41V20.7597H53.7841V9.59378ZM55.1173 4.8775C54.6729 4.8775 54.3093 5.03874 54.0063 5.32091C53.7034 5.60309 53.5418 5.96588 53.5418 6.40929C53.5418 6.83254 53.7034 7.19533 54.0063 7.4775C54.3093 7.75967 54.6729 7.90076 55.1173 7.90076C55.5616 7.90076 55.9454 7.73952 56.2282 7.4775C56.5312 7.19533 56.6928 6.83254 56.6928 6.40929C56.6928 5.98603 56.5312 5.62324 56.2282 5.32091C55.9656 5.03874 55.5818 4.8775 55.1173 4.8775ZM65.7216 9.49301C65.2368 9.39223 64.7318 9.33177 64.2471 9.33177C63.0553 9.33177 61.9646 9.59378 61.0557 10.1178C60.1467 10.6418 59.4196 11.3674 58.955 12.2744C58.4702 13.2015 58.2279 14.2698 58.2279 15.4992C58.2279 16.5674 58.4702 17.5147 58.9348 18.3814C59.3994 19.2279 60.0457 19.9132 60.9143 20.3767C61.7424 20.8403 62.712 21.0822 63.8027 21.0822C65.055 21.0822 66.1255 20.8201 66.9739 20.3364L66.9941 20.3163V17.8977L66.8931 17.9783C66.5093 18.2605 66.0649 18.5023 65.6206 18.6434C65.156 18.8046 64.7318 18.8853 64.3683 18.8853C63.3179 18.8853 62.4898 18.5829 61.904 17.9178C61.2981 17.2729 60.9951 16.386 60.9951 15.2775C60.9951 14.1287 61.2981 13.2217 61.9242 12.5566C62.5504 11.8915 63.3785 11.5488 64.3885 11.5488C65.2368 11.5488 66.1053 11.831 66.8931 12.3953L66.9941 12.476V9.91626L66.9739 9.89611C66.6305 9.75502 66.2467 9.59378 65.7216 9.49301ZM74.3868 9.41239C73.7404 9.41239 73.1345 9.61394 72.6093 10.0372C72.1649 10.4 71.862 10.924 71.5994 11.5488H71.5792V9.59378H68.9534V20.7597H71.5792V15.0558C71.5792 14.0884 71.7812 13.2822 72.2255 12.6977C72.6699 12.093 73.2355 11.7907 73.9222 11.7907C74.1646 11.7907 74.407 11.8511 74.71 11.8915C74.9928 11.9721 75.1947 12.0527 75.3361 12.1535L75.4371 12.2341V9.61394L75.3765 9.59378C75.1947 9.47285 74.8312 9.41239 74.3868 9.41239ZM81.5371 9.35192C79.6991 9.35192 78.2245 9.89611 77.1944 10.9643C76.1441 12.0325 75.6391 13.5039 75.6391 15.3581C75.6391 17.0915 76.1643 18.5023 77.1742 19.5302C78.1841 20.538 79.5577 21.062 81.2745 21.062C83.0722 21.062 84.5063 20.5178 85.5365 19.4294C86.5868 18.3411 87.0918 16.8899 87.0918 15.0961C87.0918 13.3225 86.607 11.9116 85.6173 10.8837C84.6679 9.8558 83.2742 9.35192 81.5371 9.35192ZM83.6378 17.938C83.153 18.5628 82.3855 18.8651 81.4361 18.8651C80.4868 18.8651 79.7192 18.5628 79.1739 17.8977C78.6285 17.2729 78.3659 16.3659 78.3659 15.217C78.3659 14.0279 78.6487 13.1209 79.1739 12.476C79.7192 11.831 80.4666 11.5085 81.4159 11.5085C82.3451 11.5085 83.0722 11.8108 83.5974 12.4356C84.1226 13.0604 84.4053 13.9674 84.4053 15.1566C84.3649 16.3659 84.1428 17.3132 83.6378 17.938ZM92.9494 14.2294C92.1212 13.8868 91.5961 13.6248 91.3537 13.4031C91.1517 13.2015 91.0507 12.9194 91.0507 12.5566C91.0507 12.2542 91.1719 11.9519 91.4749 11.7504C91.7779 11.5488 92.1212 11.448 92.6262 11.448C93.0706 11.448 93.5351 11.5287 93.9795 11.6496C94.4239 11.7705 94.8279 11.9519 95.151 12.1938L95.252 12.2744V9.81549L95.1914 9.79533C94.8884 9.6744 94.4845 9.55347 93.9997 9.4527C93.5149 9.37208 93.0706 9.33177 92.707 9.33177C91.4547 9.33177 90.4245 9.63409 89.6166 10.2992C88.8087 10.924 88.4249 11.7705 88.4249 12.7581C88.4249 13.2822 88.5057 13.7457 88.6875 14.1287C88.8692 14.5116 89.1318 14.8744 89.4954 15.1767C89.859 15.4589 90.3841 15.7814 91.1113 16.0837C91.7173 16.3457 92.1818 16.5473 92.4646 16.7085C92.7474 16.8698 92.9292 17.0511 93.0706 17.1922C93.1716 17.3535 93.2322 17.555 93.2322 17.817C93.2322 18.5628 92.6666 18.9256 91.5153 18.9256C91.0709 18.9256 90.6063 18.8449 90.061 18.6636C89.5156 18.4822 89.0106 18.2201 88.5865 17.9178L88.4855 17.8372V20.3969L88.5461 20.417C88.9298 20.5984 89.3944 20.7194 89.96 20.8605C90.5255 20.9612 91.0305 21.0418 91.4749 21.0418C92.8282 21.0418 93.9391 20.7395 94.7269 20.0744C95.5348 19.4294 95.959 18.6031 95.959 17.5349C95.959 16.7891 95.757 16.124 95.3126 15.6201C94.7269 15.1364 93.9997 14.6325 92.9494 14.2294ZM102.887 9.35192C101.049 9.35192 99.5745 9.89611 98.5444 10.9643C97.5143 12.0325 96.9891 13.5039 96.9891 15.3581C96.9891 17.0915 97.5143 18.5023 98.5242 19.5302C99.5341 20.538 100.908 21.062 102.625 21.062C104.422 21.062 105.856 20.5178 106.886 19.4294C107.937 18.3411 108.442 16.8899 108.442 15.0961C108.442 13.3225 107.957 11.9116 106.967 10.8837C106.018 9.8558 104.624 9.35192 102.887 9.35192ZM104.968 17.938C104.483 18.5628 103.715 18.8651 102.766 18.8651C101.796 18.8651 101.049 18.5628 100.504 17.8977C99.9583 17.2729 99.6957 16.3659 99.6957 15.217C99.6957 14.0279 99.9785 13.1209 100.504 12.476C101.049 11.831 101.796 11.5085 102.746 11.5085C103.655 11.5085 104.402 11.8108 104.927 12.4356C105.452 13.0604 105.735 13.9674 105.735 15.1566C105.735 16.3659 105.473 17.3132 104.968 17.938ZM122.48 11.7504V9.59378H119.834V6.28836L119.753 6.30851L117.248 7.05425L117.188 7.0744V9.59378H113.229V8.18293C113.229 7.53797 113.39 7.03409 113.673 6.71161C113.956 6.38913 114.38 6.22789 114.905 6.22789C115.269 6.22789 115.653 6.30851 116.077 6.48991L116.178 6.55037V4.27285L116.117 4.2527C115.754 4.13177 115.269 4.05115 114.643 4.05115C113.855 4.05115 113.168 4.23254 112.542 4.53487C111.916 4.8775 111.451 5.34107 111.108 5.96588C110.765 6.57053 110.583 7.2558 110.583 8.04185V9.59378H108.745V11.7302H110.583V20.7597H113.229V11.7504H117.188V17.4946C117.188 19.8527 118.299 21.0418 120.521 21.0418C120.884 21.0418 121.268 20.9814 121.631 20.9209C122.015 20.8403 122.298 20.7395 122.46 20.6589L122.48 20.6387V18.4822L122.379 18.5628C122.217 18.6636 122.076 18.7442 121.833 18.8046C121.631 18.8651 121.45 18.8853 121.308 18.8853C120.783 18.8853 120.42 18.7643 120.157 18.462C119.915 18.1798 119.793 17.7163 119.793 17.031V11.7504H122.48Z" fill="#A5A7B2"/>
<path d="M0.5 0H12.8818V12.355H0.5V0Z" fill="#A5A7B2"/>
<path d="M14.1743 0H26.5561V12.355H14.1743V0Z" fill="#00A09D"/>
<path d="M0.5 13.645H12.8818V26.0001H0.5V13.645Z" fill="#00A09D"/>
<path d="M14.1743 13.645H26.5561V26.0001H14.1743V13.645Z" fill="#A5A7B2"/>
</g>
<defs>
<clipPath id="clip0_1176_8658">
<rect width="122" height="26" fill="white" transform="translate(0.5)"/>
</clipPath>
</defs>
</svg>
