<svg width="120" height="24" viewBox="0 0 120 24" fill="none" xmlns="http://www.w3.org/2000/svg">
<path d="M50.3423 0H50.5067C54.9467 5.19709 59.8356 10.0145 64.3689 15.1375C64.3467 10.4509 64.3823 5.76873 64.3467 1.08218C65.5334 1.07782 66.7156 1.06473 67.9023 1.05164C67.8978 8.70109 67.9201 16.3505 67.8934 24H67.7245C63.3423 18.7593 58.4089 13.9811 53.8667 8.86691C53.8801 10.1149 53.8978 11.3629 53.9201 12.6109C52.9067 11.3891 51.7423 10.2938 50.7334 9.06764C50.2712 8.63127 50.4045 7.968 50.3601 7.40945C50.3556 4.93964 50.4134 2.46982 50.3423 0Z" fill="#00A09D"/>
<path d="M70.1422 1.08653C74.6356 1.06908 79.1289 1.06035 83.6222 1.08653C83.6222 2.10326 83.6222 3.11999 83.6311 4.13235C80.3156 4.18035 77.0045 4.14544 73.6889 4.1498C73.7022 6.08726 73.6934 8.02471 73.6978 9.96217C76.4178 9.93599 79.1378 9.95344 81.8578 9.94471C81.8578 10.9833 81.8578 12.0218 81.8578 13.0604C79.1378 13.0385 76.4178 13.0516 73.6978 13.0429C73.6934 15.312 73.7022 17.5811 73.6889 19.8502C77 19.8502 80.3111 19.8284 83.6267 19.8589C83.6222 20.8887 83.6222 21.9142 83.6267 22.9396C79.1289 22.9571 74.6267 22.992 70.1289 22.9222C70.1867 15.6436 70.16 8.36508 70.1422 1.08653Z" fill="#00A09D"/>
<path d="M96.2178 1.06036C97.6978 1.07782 99.1778 1.08218 100.662 1.03418C97.9289 4.58182 95.1156 8.07273 92.4489 11.6596C95.7867 15.3949 99.0133 19.2175 102.311 22.9876C100.844 22.9615 99.3778 22.9527 97.9155 22.9702C94.9378 19.6756 92.0089 16.3505 89.0489 13.0385C89.0667 16.3636 89.12 19.6887 89.0356 23.0095C87.8711 22.9615 86.7067 22.9571 85.5422 22.9527C85.5911 15.6524 85.5556 8.35636 85.56 1.056C86.7289 1.06909 87.9022 1.06909 89.0711 1.05163C89.0756 4.05818 89.0933 7.06036 89.04 10.0625C91.4844 7.09964 93.8133 4.04945 96.2178 1.06036Z" fill="#00A09D"/>
<path d="M102.849 1.04724C108.2 1.10397 113.551 1.05597 118.902 1.07342C118.894 2.10324 118.894 3.1287 118.902 4.15415C116.774 4.15851 114.649 4.14979 112.525 4.14979C112.56 10.4029 112.48 16.6603 112.565 22.9091C111.378 22.9352 110.187 22.9614 109 22.9701C109.005 16.6952 108.996 10.4203 109.005 4.14542C106.956 4.15851 104.902 4.14106 102.849 4.18033C102.849 3.13742 102.849 2.09451 102.849 1.04724Z" fill="#00A09D"/>
<path d="M36.3289 0.00439453C41.0266 5.04003 45.7155 10.08 50.3911 15.1331C50.3866 13.7629 50.36 12.3971 50.3466 11.0269C51.5466 12.3055 52.72 13.6102 53.9155 14.8975C53.8978 17.9302 53.9155 20.9629 53.9111 23.9957C49.2222 18.9513 44.5022 13.9288 39.8355 8.86258C39.8711 13.5709 39.8578 18.2793 39.8444 22.9833C38.6755 22.9571 37.5022 22.9528 36.3333 22.9833C36.3244 15.3208 36.3333 7.66258 36.3289 0.00439453Z" fill="#2D2D2D"/>
<path d="M11.7956 1.10839C13.2756 1.00803 14.7645 1.11275 16.249 1.02112C13.5601 4.49894 10.8223 7.93748 8.16897 11.4415L8.11564 11.712C11.3779 15.4735 14.6134 19.2568 17.9156 22.9833C16.4401 22.9615 14.9601 22.9484 13.4845 22.9746C10.5245 19.6669 7.56453 16.3593 4.62231 13.0342C4.67119 16.3462 4.63119 19.6626 4.65786 22.9746C3.45786 22.9528 2.25786 22.9571 1.05786 22.9833C1.07119 15.6698 1.05786 8.36076 1.06231 1.0473C2.25786 1.07348 3.45786 1.07785 4.65342 1.05166C4.64897 4.06694 4.64897 7.07785 4.63119 10.0931C7.03119 7.10403 9.34675 4.05385 11.7956 1.10839Z" fill="#2D2D2D"/>
<path d="M20.0446 1.05603C24.4979 1.0953 28.9557 1.06476 33.4134 1.06912C33.409 2.09894 33.4134 3.12876 33.4134 4.15421C30.1023 4.15421 26.7868 4.15858 23.4757 4.14985C23.4801 6.0873 23.4801 8.02039 23.4757 9.95785C26.2046 9.93603 28.9334 9.95785 31.6623 9.93603C31.6623 10.9833 31.6623 12.0262 31.6579 13.0735C28.9334 13.0255 26.209 13.0604 23.4801 13.0473C23.4757 15.3164 23.4846 17.5811 23.4757 19.8502C26.7868 19.8371 30.0979 19.8502 33.409 19.8415C33.4134 20.88 33.4134 21.9142 33.4179 22.9528C28.9646 22.9833 24.5068 22.9179 20.0534 22.9877C20.0312 15.6742 20.049 8.36512 20.0446 1.05603Z" fill="#2D2D2D"/>
</svg>
